HIERARCHY
ROOT root
{
	OFFSET 0.000000 0.000000 0.000000
	CHANNELS 6 Xposition Yposition Zposition Zrotation Yrotation Xrotation
	JOINT lhip
	{
		OFFSET 0.058581 -0.082280 -0.017664
		CHANNELS 3 Zrotation Yrotation Xrotation
		JOINT lknee
		{
			OFFSET 0.043451 -0.386469 0.008037
			CHANNELS 3 Zrotation Yrotation Xrotation
			JOINT lankle
			{
				OFFSET -0.014790 -0.426874 -0.037428
				CHANNELS 3 Zrotation Yrotation Xrotation
				JOINT ltoe
				{
					OFFSET 0.041054 -0.060286 0.122042
					CHANNELS 3 Zrotation Yrotation Xrotation
					End Site
					{
						OFFSET 0.000000 0.000000 0.000000
					}
				}
			}
		}
	}
	JOINT rhip
	{
		OFFSET -0.060310 -0.090513 -0.013543
		CHANNELS 3 Zrotation Yrotation Xrotation
		JOINT rknee
		{
			OFFSET -0.043257 -0.383688 -0.004843
			CHANNELS 3 Zrotation Yrotation Xrotation
			JOINT rankle
			{
				OFFSET 0.019056 -0.420046 -0.034562
				CHANNELS 3 Zrotation Yrotation Xrotation
				JOINT rtoe
				{
					OFFSET -0.034840 -0.062106 0.130323
					CHANNELS 3 Zrotation Yrotation Xrotation
					End Site
					{
						OFFSET 0.000000 0.000000 0.000000
					}
				}
			}
		}
	}
	JOINT lowerback
	{
		OFFSET 0.004439 0.124404 -0.038385
		CHANNELS 3 Zrotation Yrotation Xrotation
		JOINT upperback
		{
			OFFSET 0.004488 0.137956 0.026820
			CHANNELS 3 Zrotation Yrotation Xrotation
			JOINT chest
			{
				OFFSET -0.002265 0.056032 0.002855
				CHANNELS 3 Zrotation Yrotation Xrotation
				JOINT lowerneck
				{
					OFFSET -0.013390 0.211636 -0.033468
					CHANNELS 3 Zrotation Yrotation Xrotation
					JOINT upperneck
					{
						OFFSET 0.010113 0.088937 0.050410
						CHANNELS 3 Zrotation Yrotation Xrotation
						End Site
						{
							OFFSET 0.000000 0.000000 0.000000
						}
					}
				}
				JOINT lclavicle
				{
					OFFSET 0.071702 0.114000 -0.018898
					CHANNELS 3 Zrotation Yrotation Xrotation
					JOINT lshoulder
					{
						OFFSET 0.122921 0.045205 -0.019046
						CHANNELS 3 Zrotation Yrotation Xrotation
						JOINT lelbow
						{
							OFFSET 0.255332 -0.015649 -0.022946
							CHANNELS 3 Zrotation Yrotation Xrotation
							JOINT lwrist
							{
								OFFSET 0.265709 0.012698 -0.007375
								CHANNELS 3 Zrotation Yrotation Xrotation
								End Site
								{
									OFFSET 0.000000 0.000000 0.000000
								}
							}
						}
					}
				}
				JOINT rclavicle
				{
					OFFSET -0.082954 0.112472 -0.023707
					CHANNELS 3 Zrotation Yrotation Xrotation
					JOINT rshoulder
					{
						OFFSET -0.113228 0.046853 -0.008472
						CHANNELS 3 Zrotation Yrotation Xrotation
						JOINT relbow
						{
							OFFSET -0.260127 -0.014369 -0.031269
							CHANNELS 3 Zrotation Yrotation Xrotation
							JOINT rwrist
							{
								OFFSET -0.269108 0.006794 -0.006027
								CHANNELS 3 Zrotation Yrotation Xrotation
								End Site
								{
									OFFSET 0.000000 0.000000 0.000000
								}
							}
						}
					}
				}
			}
		}
	}
}
MOTION
Frames: 16
Frame Time: 0.033333
0.865017 0.762512 0.980946 -123.458715 1.917253 101.238966 -0.882553 -9.334561 -14.393395 -4.488109 -22.019942 19.231524 3.443976 4.826767 -18.410999 0.000000 -0.000000 0.000000 -4.121761 7.656444 -27.381956 0.041813 5.708845 26.771537 7.476368 -2.612528 -24.225628 0.000000 -0.000000 0.000000 0.437007 -4.037569 30.431604 4.282117 -3.725739 -2.539948 2.681261 -2.927495 5.209355 -0.241777 5.698776 -8.443979 3.088878 -2.349692 -2.636579 -16.301889 2.143042 1.915546 -58.868995 -12.167139 16.124010 26.576232 -77.289706 -3.135317 13.512362 -15.830365 -20.138957 18.352729 -3.325562 1.722628 54.703622 -7.003374 13.701287 -16.460155 50.169300 1.137372 5.103503 7.953211 -13.450587 
0.842112 0.782519 0.986199 -121.379269 0.861156 101.970580 -0.912993 -8.389855 -12.564459 -5.272071 -22.526665 17.239475 2.291273 2.954356 -17.017963 0.000000 -0.000000 0.000000 -6.001251 6.051680 -28.765491 -0.500129 2.749672 19.640176 8.776753 -1.888374 -21.866514 0.000000 -0.000000 0.000000 1.662278 -4.109109 29.207193 4.541965 -2.930591 -1.620622 3.102879 -2.493120 4.665577 -0.647256 3.830133 -7.704932 2.821005 -4.082456 -2.946366 -16.361199 2.970122 2.337962 -59.320595 -12.714728 17.727738 39.569573 -84.599620 -15.605955 13.924508 -16.414953 -22.770116 18.545897 -3.462656 2.732189 53.676606 -6.936668 12.719009 -17.186248 48.861764 -0.714757 6.192619 6.955416 -13.973696 
0.817353 0.805052 0.986567 -119.934700 -0.188950 101.850235 -1.108370 -7.328008 -11.127518 -6.889830 -22.430051 18.290025 1.612221 1.471607 -16.538743 0.000000 -0.000000 0.000000 -6.408089 3.811687 -29.056331 -0.815495 -0.761065 16.765189 9.040697 -2.587032 -19.999178 0.000000 -0.000000 0.000000 2.752911 -3.668395 28.202869 4.798784 -1.920440 -1.226804 3.420568 -1.811157 4.563299 -0.982425 1.604132 -6.919644 2.199044 -5.972529 -2.759483 -16.592542 4.632488 2.740281 -59.100939 -11.691762 18.070445 62.251446 -88.594501 -38.656876 14.311767 -16.516837 -25.264190 18.986360 -3.944694 3.370241 52.675989 -6.960931 11.550723 -17.683363 47.335101 -2.189619 6.093446 6.299523 -12.739651 
0.790667 0.828763 0.981577 -118.561947 -1.816152 100.871219 -1.786920 -6.821224 -11.121821 -10.164931 -20.967687 24.001054 1.192780 0.167066 -16.051926 0.000000 -0.000000 0.000000 -6.672029 2.013151 -28.036049 -1.027265 -1.331885 17.941070 7.549543 -3.021137 -16.889198 0.000000 -0.000000 0.000000 3.420122 -2.704934 27.656114 5.216584 -1.212431 -1.215245 3.563369 -1.146836 4.701606 -1.266298 -0.860732 -6.296541 1.326904 -7.722152 -2.510508 -17.164788 6.357249 3.059877 -57.815358 -9.341679 17.264987 -9.628936 -88.744594 32.786432 13.500146 -16.400419 -26.273606 19.504452 -4.657570 3.659470 51.808723 -7.165648 10.512296 -18.307573 45.868020 -3.186851 5.480013 5.918885 -10.897391 
0.763639 0.852877 0.972869 -116.577889 -3.868082 99.202473 -2.334064 -6.582959 -13.580077 -14.890493 -17.798839 34.622881 -0.774585 -1.910513 -13.195360 0.000000 -0.000000 0.000000 -7.486036 0.573671 -26.865201 -0.987974 0.549265 23.529175 4.437369 -3.057658 -17.228316 0.000000 -0.000000 0.000000 4.043815 -1.370738 27.524006 5.794579 -1.026667 -0.949528 3.416902 -0.754587 4.614673 -1.363895 -3.158578 -5.735643 0.621793 -9.532875 -2.966756 -18.104237 7.435567 3.389557 -55.660945 -6.337334 15.664495 -5.553298 -84.598387 28.419886 11.645113 -15.994351 -26.217883 20.408624 -5.097357 3.738453 51.001226 -7.475275 9.390756 -19.312727 44.331861 -4.107810 4.864138 5.718700 -9.730212 
0.736003 0.877006 0.964418 -114.368856 -5.007610 96.903293 -2.059767 -6.047234 -16.910812 -16.817631 -13.128755 45.954630 -5.882708 -4.621523 -8.672924 0.000000 -0.000000 0.000000 -8.015031 0.221244 -24.884969 -0.675667 0.688139 29.665176 1.562415 -4.553538 -21.781103 0.000000 -0.000000 0.000000 5.450791 -0.223281 28.404307 6.103570 -1.082419 -1.076764 3.406212 -0.701546 4.354157 -1.233414 -5.008378 -4.881415 0.183040 -10.789897 -3.741965 -18.451024 6.505730 3.646028 -55.202694 -1.012738 12.330372 2.319240 -77.905927 20.084843 8.903813 -16.752080 -22.321010 20.767683 -2.736761 3.820512 50.985095 -8.974733 6.045853 -19.758372 42.642925 -5.590931 5.658167 5.449802 -7.099351 
0.707789 0.900975 0.958380 -113.551588 -5.058322 95.280514 -0.723673 -5.738142 -20.006865 -16.561291 -8.663395 53.973324 -6.960215 -2.949636 -8.334656 0.000000 -0.000000 0.000000 -7.550757 1.163505 -21.903939 -0.444281 0.024779 32.317257 -0.000161 -5.924393 -25.480951 0.000000 -0.000000 0.000000 6.289221 0.606516 28.581613 6.556960 -0.575954 -0.189397 3.442993 -0.400141 3.311487 -0.485275 -6.161320 -4.055361 -0.839363 -11.121642 -4.135154 -19.177756 7.190903 4.505201 -55.028331 2.861547 9.927003 5.245872 -69.288031 18.189735 7.394853 -16.233471 -19.213928 21.395231 -1.596783 4.761989 49.703593 -7.632677 4.977352 -19.730922 40.780082 -4.795203 3.379693 5.518096 -7.491968 
0.679240 0.924818 0.956720 -114.264267 -5.042716 94.524304 0.265918 -3.764666 -23.091489 -14.696520 -5.665772 58.370158 -5.717247 -1.055122 -10.136133 0.000000 -0.000000 0.000000 -6.158456 1.147142 -18.797923 -0.550637 1.917812 32.527612 -0.917229 -6.936586 -27.710996 0.000000 -0.000000 0.000000 6.010740 1.664098 28.504405 6.652738 -0.117286 -0.748217 3.703018 0.248215 3.324910 -0.163858 -6.723042 -3.611867 -1.717444 -10.908618 -3.121668 -19.465500 8.615322 4.786298 -54.850924 6.854525 7.398938 2.964346 -60.590447 20.772336 6.013739 -15.541684 -16.396128 21.724407 -0.947851 4.815216 48.846791 -5.959797 4.341073 -19.646596 40.012247 -4.724738 -0.333192 5.723084 -6.488384 
0.650125 0.947632 0.960467 -115.534661 -5.346965 94.413772 0.667910 -1.832803 -25.702708 -13.000559 -4.122888 58.030474 -4.399157 -0.262591 -12.447651 0.000000 -0.000000 0.000000 -5.147601 0.524622 -15.521433 -0.892681 4.562683 30.892019 -0.902354 -7.011022 -28.588632 0.000000 -0.000000 0.000000 5.226609 3.124207 27.947429 6.454919 -0.168247 -1.834572 3.752725 0.752835 3.872413 -0.052439 -6.259582 -3.153582 -2.295783 -11.168347 -2.178476 -18.953784 10.359823 5.118180 -54.404841 10.262360 5.400238 -1.008238 -53.126553 24.446564 3.037429 -14.752979 -16.365337 21.968584 -1.356487 4.255074 48.801321 -3.946965 4.358077 -19.781988 41.076694 -5.310596 -5.373544 6.391179 -5.984394 
0.619332 0.969179 0.968261 -116.666039 -5.636629 94.434193 1.016592 -1.467980 -26.937082 -11.647480 -3.118179 52.538681 -3.688335 0.825296 -14.071451 0.000000 -0.000000 0.000000 -5.037965 -0.073750 -11.459285 -0.950438 6.130150 27.569698 0.056759 -5.781046 -27.972982 0.000000 -0.000000 0.000000 4.585031 4.568711 27.125376 6.087926 -0.554374 -2.245261 3.454145 0.841870 4.111270 0.200734 -4.888459 -3.200919 -2.834883 -11.917183 -1.094254 -18.119752 11.400466 5.804659 -53.936279 13.385563 4.561016 -3.294680 -47.882697 28.032331 -3.547636 -14.908626 -16.826986 22.079799 -2.165215 3.763911 49.354517 -2.208435 4.853896 -20.034805 44.245704 -6.039817 -8.286731 6.993267 -8.078749 
0.587030 0.990243 0.977653 -117.640219 -5.463797 94.521303 1.739807 -2.260109 -26.666983 -10.360251 -2.795516 42.841974 -3.421516 2.451843 -14.641003 0.000000 -0.000000 0.000000 -5.285188 -0.263610 -7.254037 -0.374022 6.507198 23.846746 1.798084 -3.824858 -26.172656 0.000000 -0.000000 0.000000 4.096775 5.657980 26.003702 5.656215 -0.858233 -1.816651 2.988410 0.781439 3.945404 0.705980 -3.225664 -3.417017 -3.136794 -12.704732 -0.254108 -17.479973 12.127159 6.393828 -53.024348 16.118073 4.786494 -5.042296 -45.404136 32.480260 -12.196177 -15.195261 -15.223974 21.945788 -2.965041 3.419707 50.141924 -1.137637 5.728546 -19.927944 48.851759 -6.632921 -7.653017 7.366583 -12.154310 
0.554426 1.011373 0.986228 -118.959441 -4.925867 94.925886 2.613191 -3.185696 -25.507338 -8.705770 -3.430564 30.921159 -3.284075 4.127624 -14.717732 0.000000 -0.000000 0.000000 -5.379601 -0.521635 -4.032861 0.390389 7.046533 21.149463 3.985024 -1.627693 -23.669748 0.000000 -0.000000 0.000000 3.295905 6.609606 24.390275 5.133790 -0.968181 -0.946248 2.588354 0.847216 3.779113 1.228223 -1.790333 -3.564530 -2.743100 -13.343950 -0.022967 -16.826956 12.975371 6.734147 -52.103158 18.183725 5.468462 -7.049201 -45.243044 36.078740 -17.584209 -14.882225 -14.004204 21.718854 -3.694827 3.157588 50.899596 -0.650463 6.959126 -19.425405 54.212401 -6.519859 -5.531405 7.850840 -15.844860 
0.521822 1.032714 0.992559 -120.643109 -4.257074 95.396146 3.336037 -3.617648 -24.086914 -6.475162 -4.472599 19.986522 -3.281617 5.592333 -14.908171 0.000000 -0.000000 0.000000 -5.132261 -0.490737 -1.844042 0.857243 8.277209 20.191644 6.210729 0.044280 -21.221730 0.000000 -0.000000 0.000000 1.888548 7.326253 22.693373 4.545988 -0.964702 -0.004613 2.360376 1.065740 3.681266 1.659124 -0.607138 -3.871982 -1.700806 -13.611227 0.275335 -16.170481 13.643820 7.040920 -51.716511 19.594494 5.914573 -8.444439 -46.330036 36.695748 -17.909700 -14.790105 -15.027556 21.541244 -4.135416 2.841778 51.531522 -0.699179 8.432754 -18.518062 59.466895 -5.306536 -3.945944 8.474121 -17.320049 
0.497117 1.048885 0.994772 -121.923146 -3.710065 95.552823 3.674775 -3.446377 -23.185835 -4.827810 -5.278640 14.447434 -3.179572 6.549101 -15.166395 0.000000 -0.000000 0.000000 -4.638588 -0.057974 -0.770781 0.998670 9.308095 20.981068 7.346728 0.681404 -19.951095 0.000000 -0.000000 0.000000 0.553370 7.509017 21.665573 4.064942 -0.975909 0.601033 2.252096 1.212144 3.621234 1.978019 0.147171 -4.112134 -0.601915 -13.356196 0.641436 -15.767633 13.776977 7.260389 -51.747787 20.317612 5.943471 -8.955499 -47.389398 35.669119 -16.097664 -14.752879 -16.530080 21.317439 -4.135760 2.608446 52.123382 -0.993340 9.502619 -17.328042 62.773570 -3.744502 -3.654264 8.964557 -17.517502 
0.463739 1.071129 0.992750 -123.549182 -2.827112 95.366173 4.292607 -3.025386 -22.015643 -3.516151 -6.124368 11.323741 -2.974597 7.723957 -15.718893 0.000000 -0.000000 0.000000 -3.555359 0.925213 -0.290677 1.360272 10.297956 24.792959 8.263110 1.056823 -18.948214 0.000000 -0.000000 0.000000 -1.299181 7.289348 20.715479 3.430262 -1.080135 1.361599 2.030076 1.255954 3.452349 2.560370 1.105705 -4.231051 1.228513 -12.503492 0.997084 -15.411057 13.420979 7.355475 -51.914593 20.868180 5.792078 -9.084109 -48.712340 33.507270 -12.928687 -14.476988 -18.479489 20.934803 -3.826827 2.366285 53.107308 -1.661567 10.768418 -14.982893 66.078945 -0.984153 -4.274948 9.398274 -17.594366 
0.429689 1.094313 0.984016 -125.233546 -1.762644 94.662606 5.705125 -3.470002 -20.126410 -3.494860 -5.861856 11.676170 -2.625689 8.694393 -15.324706 0.000000 -0.000000 0.000000 -2.343785 2.273382 -1.116701 2.475498 10.451145 32.150954 8.958619 1.424275 -17.530064 0.000000 -0.000000 0.000000 -3.118847 6.803543 20.233388 2.967516 -1.282905 2.258392 1.601065 1.049936 3.094463 3.503080 2.166861 -4.194936 3.147170 -11.430939 1.018384 -15.484207 12.673953 7.091244 -51.741993 20.787427 5.943667 -8.311455 -49.694137 31.325754 -10.957354 -14.348837 -18.698283 20.743711 -3.542979 2.117330 53.886245 -2.619804 12.004787 -12.410527 68.256278 1.978467 -4.866452 9.680047 -17.861246 
